P2
# CREATOR: GIMP PNM Filter Version 1.1
8 4
255
0
27
62
95
130
163
198
232
0
0
0
0
0
0
0
0
255
255
255
255
255
255
255
255
100
100
100
100
100
255
255 255
